<svg xmlns="http://www.w3.org/2000/svg" xmlns:xlink="http://www.w3.org/1999/xlink" width="1600.594" height="103.94" viewBox="0 0 1600.594 103.94"><defs><radialGradient id="a" cx="0.5" cy="0.5" r="0.443" gradientTransform="translate(0 -0.478) scale(1 1.956)" gradientUnits="objectBoundingBox"><stop offset="0" stop-color="#f7931e"/><stop offset="0.483" stop-color="#ff002b"/><stop offset="1"/></radialGradient></defs><path d="M276.125.343H32.225a10.782,10.782,0,0,0-8.919,4.8L16.1,15.437v.686c0,.343.343.343.686.343h243.9a10.782,10.782,0,0,0,8.919-4.8l7.2-10.291V1.029a.738.738,0,0,0-.686-.686M1600.251,102.568,1538.5,60.032h31.9a29.566,29.566,0,0,0,25.728-15.094,28.5,28.5,0,0,0,4.116-15.094A29.866,29.866,0,0,0,1570.407,0H1326.164a10.781,10.781,0,0,0-8.919,4.8l-7.2,10.291v.686c0,.343.343.343.686.343h259.68a14.055,14.055,0,0,1,14.065,14.065c0,7.547-6.518,13.722-14.408,13.722H1326.507a11.378,11.378,0,0,0-8.919,4.459l-7.2,10.291v.686c0,.343.343.343.686.343h199.648l63.119,43.909h26.071a1.2,1.2,0,0,0,.686-.343c0-.343,0-.686-.343-.686M599.953.343h-23.67L462.394,92.963,348.506.343h-23.67a.738.738,0,0,0-.686.686V103.254a.738.738,0,0,0,.686.686h14.751a.738.738,0,0,0,.686-.686V14.065L450.731,103.6H474.4L584.516,14.065v89.19a.738.738,0,0,0,.686.686h14.751a.738.738,0,0,0,.686-.686V1.029a.738.738,0,0,0-.686-.686m309.077,0H664.787A11.378,11.378,0,0,0,655.868,4.8l-7.2,10.291v.686c0,.343.343.343.686.343H909.03a14.065,14.065,0,1,1,0,28.129H649.007a.738.738,0,0,0-.686.686v58.316a.738.738,0,0,0,.686.686H909.03a29.859,29.859,0,0,0,20.239-51.8c5.832-5.832,9.605-13.722,9.605-21.954A29.866,29.866,0,0,0,909.03.343m-.343,87.818H664.1V60.032H908.687A13.911,13.911,0,0,1,922.751,74.1a14.127,14.127,0,0,1-14.064,14.065m-648-.343H37.37L17.817,59.689H205.8a10.782,10.782,0,0,0,8.919-4.8l7.2-10.291v-.686c0-.343-.343-.343-.686-.343H10.957A10.606,10.606,0,0,0,1.351,49.4a9.81,9.81,0,0,0,.686,10.977L28.451,98.452a11.728,11.728,0,0,0,8.919,4.8H275.439c.343,0,.343,0,.686-.343v-.686l-6.518-9.605a11.728,11.728,0,0,0-8.919-4.8M1262.016.343h-243.9a10.782,10.782,0,0,0-8.919,4.8l-7.2,10.291v.686c0,.343.343.343.686.343h243.9a10.781,10.781,0,0,0,8.919-4.8l7.2-10.291V1.029a.738.738,0,0,0-.686-.686m-15.78,87.475H1022.918l-19.553-28.129h188.328a10.781,10.781,0,0,0,8.919-4.8l7.2-10.291v-.686c0-.343-.343-.343-.686-.343H996.847a10.606,10.606,0,0,0-9.6,5.832,9.81,9.81,0,0,0,.686,10.977l26.414,38.077a11.728,11.728,0,0,0,8.919,4.8h238.068c.343,0,.343,0,.686-.343v-.686l-6.861-9.605a11.728,11.728,0,0,0-8.919-4.8" transform="translate(0)" fill="url(#a)"/></svg>