<svg xmlns="http://www.w3.org/2000/svg" width="41.659" height="47.61" viewBox="0 0 41.659 47.61"><path d="M9.726,10.068A2.739,2.739,0,0,0,7.1,12.921a2.755,2.755,0,0,0,2.622,2.853,2.739,2.739,0,0,0,2.622-2.853,2.722,2.722,0,0,0-2.622-2.853m9.382,0a2.739,2.739,0,0,0-2.622,2.853,2.755,2.755,0,0,0,2.622,2.853,2.739,2.739,0,0,0,2.622-2.853,2.739,2.739,0,0,0-2.622-2.853" transform="translate(6.447 9.706)" fill="#3e3e3e"/><path d="M36.779,0H4.88A4.892,4.892,0,0,0,0,4.9V37.088a4.892,4.892,0,0,0,4.88,4.9H31.875l-1.262-4.4,3.047,2.833,2.88,2.666,5.118,4.523V4.9A4.892,4.892,0,0,0,36.779,0M27.59,31.089s-.857-1.024-1.571-1.928a7.512,7.512,0,0,0,4.309-2.833,13.622,13.622,0,0,1-2.738,1.4,15.668,15.668,0,0,1-3.452,1.024,16.676,16.676,0,0,1-6.166-.024,19.983,19.983,0,0,1-3.5-1.024,13.95,13.95,0,0,1-1.738-.809c-.071-.048-.143-.071-.214-.119a.329.329,0,0,1-.1-.071c-.428-.238-.667-.4-.667-.4a7.4,7.4,0,0,0,4.166,2.809c-.714.9-1.595,1.976-1.595,1.976C9.07,30.923,7.07,27.471,7.07,27.471A31.879,31.879,0,0,1,10.5,13.593a11.772,11.772,0,0,1,6.689-2.5l.238.286A16.06,16.06,0,0,0,11.165,14.5s.524-.286,1.4-.69a17.877,17.877,0,0,1,5.4-1.5,2.345,2.345,0,0,1,.4-.048,20.142,20.142,0,0,1,4.809-.048A19.405,19.405,0,0,1,30.352,14.5a15.843,15.843,0,0,0-5.927-3.023l.333-.381a11.772,11.772,0,0,1,6.689,2.5,31.879,31.879,0,0,1,3.428,13.878s-2.023,3.452-7.284,3.618" fill="#3e3e3e"/></svg>