<svg xmlns="http://www.w3.org/2000/svg" width="41.659" height="34.469" viewBox="0 0 41.659 34.469"><path d="M40.44.441a17.307,17.307,0,0,1-5.449,2.185,8.644,8.644,0,0,0-14.586,8.115A24.511,24.511,0,0,1,2.461,2.01,8.647,8.647,0,0,0,5.32,13.5a8.609,8.609,0,0,1-3.928-1.017c0,.036,0,.073,0,.109a8.643,8.643,0,0,0,7.065,8.354,8.659,8.659,0,0,1-2.27.338,8.527,8.527,0,0,1-1.626-.128,8.643,8.643,0,0,0,8.163,5.865A17.34,17.34,0,0,1,2.062,30.89,17.619,17.619,0,0,1,0,30.8a24.438,24.438,0,0,0,13.3,3.664C29.182,34.207,37.653,20.907,37.467,9.5c-.007-.375-.021-.746-.043-1.118a17.575,17.575,0,0,0,4.235-4.539A17.3,17.3,0,0,1,36.722,5.28,8.667,8.667,0,0,0,40.44.441" transform="translate(0 0)" fill="#3e3e3e"/></svg>