<svg id="Group_808" data-name="Group 808" xmlns="http://www.w3.org/2000/svg" xmlns:xlink="http://www.w3.org/1999/xlink" width="168.948" height="187.667" viewBox="0 0 168.948 187.667">
  <defs>
    <clipPath id="clip-path">
      <rect id="Rectangle_409" data-name="Rectangle 409" width="168.948" height="187.667" fill="none"/>
    </clipPath>
  </defs>
  <g id="Group_807" data-name="Group 807" clip-path="url(#clip-path)">
    <path id="Path_1248" data-name="Path 1248" d="M77.915,0c.062.212.252.317.394.458Q91.737,13.9,105.18,27.319c.373.372.416.561.017.95-1.156,1.125-2.276,2.287-3.376,3.468-.33.355-.493.319-.817-.006Q89.676,20.373,78.335,9.027c-.375-.377-.556-.4-.943-.01q-3.811,3.872-7.681,7.682c-.367.363-.319.53.016.865q11.359,11.328,22.7,22.67c.359.359.378.548,0,.905q-1.75,1.672-3.424,3.422c-.361.379-.548.419-.945.019Q79.57,36.041,71.039,27.536c-1.91-1.91-3.827-3.814-5.723-5.738-.282-.285-.426-.27-.7,0-3.293,3.314-6.6,6.61-9.9,9.924-.315.318-.483.375-.826.027Q52.155,29.99,50.346,28.3c-.323-.3-.318-.464,0-.776q9.605-9.578,19.19-19.178Q73.492,4.383,77.45.42C77.577.292,77.755.2,77.8,0Z" transform="translate(6.602)" fill="#fff"/>
    <path id="Path_1249" data-name="Path 1249" d="M151.375,149.908q-8.69,0-17.379.008c-.481,0-.63-.1-.628-.61.021-5.025.015-10.05.009-15.075,0-.326-.014-.555.449-.553q8.775.027,17.549.019v2.927c-.318,0-.637,0-.955,0-4.518,0-9.036.007-13.554-.009-.423,0-.551.112-.536.532.031.843.048,1.69,0,2.531-.034.564.164.669.69.665,3.693-.024,7.386-.007,11.08-.02.383,0,.531.088.509.493a14.09,14.09,0,0,0,0,1.855c.04.512-.14.616-.625.612-3.693-.02-7.387,0-11.08-.02-.428,0-.593.1-.575.553.035.861.038,1.726,0,2.586-.021.478.132.587.6.585,4.817-.017,9.635-.01,14.453-.01Z" transform="translate(17.573 17.614)" fill="#fff"/>
    <path id="Path_1250" data-name="Path 1250" d="M168.948,155.572c-.242.018-.484.051-.727.051q-83.745.005-167.49,0c-.23,0-.533.126-.672-.127a.887.887,0,0,1-.011-.6c.046-.174.257-.1.4-.106s.3,0,.45,0H168.948Z" transform="translate(0 20.395)" fill="#fff"/>
    <path id="Path_1251" data-name="Path 1251" d="M108.836,53.3c-.135.141-.249.266-.368.386q-4.927,4.983-9.861,9.957c-.311.312-.379.474-.025.824q3.927,3.876,7.8,7.8c.284.287.423.319.73.012Q117.468,61.9,127.851,51.543c.3-.3.3-.438,0-.735-3.315-3.292-6.611-6.6-9.923-9.9-.3-.3-.352-.463-.024-.789,1.186-1.175,2.345-2.378,3.5-3.585.254-.266.4-.34.7-.036q7.169,7.2,14.366,14.37c.249.248.272.4-.007.607a1.835,1.835,0,0,0-.2.2q-27.341,27.342-54.675,54.7c-.379.379-.559.431-.973.017Q53.267,79.005,25.887,51.659c-.4-.4-.386-.586.007-.976Q32.962,43.661,39.985,36.6c.346-.346.518-.37.862,0q1.63,1.752,3.336,3.427c.373.367.409.564.009.959-3.282,3.245-6.529,6.524-9.811,9.769-.364.361-.325.523.011.856q3.842,3.8,7.641,7.643c.383.388.574.432.988.016q12.337-12.381,24.7-24.736c.366-.366.544-.426.945-.021Q75.7,41.6,82.788,48.639c.352.349.359.521,0,.864-1.152,1.1-2.284,2.227-3.382,3.384-.36.379-.534.311-.865-.018C75.234,49.57,71.9,46.294,68.594,43c-.308-.307-.467-.32-.782,0Q57.566,53.325,47.294,63.629c-.33.33-.387.5-.018.864Q63.989,81.17,80.667,97.885c.354.355.514.336.852-.007q3.837-3.884,7.722-7.719c.375-.369.308-.536-.022-.866Q77.883,77.984,66.559,66.663c-.368-.368-.433-.559-.02-.951,1.2-1.135,2.36-2.31,3.505-3.5.32-.333.486-.281.783.017q11.33,11.356,22.667,22.7c.42.422.611.364.989-.019q3.815-3.867,7.679-7.684c.306-.3.324-.458,0-.773-4.051-3.989-8.08-8-12.131-11.988-.346-.341-.309-.5.014-.822q7.12-7.088,14.21-14.206c.278-.28.429-.364.751-.028,1.156,1.2,2.352,2.37,3.531,3.553.1.1.191.217.294.334" transform="translate(3.372 4.51)" fill="#fff"/>
    <path id="Path_1252" data-name="Path 1252" d="M29.706,120.015c0-2.514.01-5.027-.01-7.541,0-.44.114-.564.56-.562,4.54.017,9.079.006,13.619.012a3.543,3.543,0,0,1,3.754,3.731c.007.882,0,1.763,0,2.645a2.106,2.106,0,0,1-.489,1.458c-.18.2-.207.337-.012.559a2.166,2.166,0,0,1,.5,1.511c-.012.976.011,1.951-.011,2.927a3.434,3.434,0,0,1-3.389,3.373c-2.307.036-4.614.012-6.921.012-2.364,0-4.727-.011-7.091.01-.431,0-.527-.127-.524-.538.018-2.532.009-5.065.009-7.6m8.572-1.445c1.723,0,3.446.008,5.169,0a1.129,1.129,0,0,0,1.238-1.215c.014-.337,0-.675,0-1.012-.006-1.023-.407-1.459-1.415-1.462-3.391-.01-6.78,0-10.171-.011-.38,0-.471.129-.462.486q.034,1.377,0,2.754c-.01.364.1.478.467.474,1.723-.018,3.446-.008,5.17-.009m.019,6.65c1.707,0,3.415.008,5.121,0a1.155,1.155,0,0,0,1.268-1.255c.011-.337,0-.675,0-1.013-.006-.969-.392-1.409-1.343-1.414-3.433-.016-6.865,0-10.3-.014-.329,0-.41.121-.4.428.017.938.024,1.876,0,2.814-.011.383.124.469.481.465,1.725-.016,3.451-.007,5.177-.008" transform="translate(3.913 14.746)" fill="#fff"/>
    <path id="Path_1253" data-name="Path 1253" d="M55.14,141.78c0-2.514.011-5.028-.009-7.542,0-.444.122-.562.564-.56,4.559.016,9.118,0,13.677.011a3.517,3.517,0,0,1,3.707,3.71q.012,4.419,0,8.837a3.515,3.515,0,0,1-3.7,3.667c-4.54.01-9.08.006-13.62.029-.48,0-.638-.1-.633-.61.028-2.514.012-5.027.012-7.542m8.575,5.2q2.5,0,5,0c.97,0,1.407-.427,1.41-1.408q.012-3.769,0-7.536c0-.987-.422-1.4-1.409-1.406-3.374-.006-6.748,0-10.121-.01-.38,0-.514.081-.512.49q.025,4.7,0,9.391c0,.409.129.492.51.488,1.706-.019,3.411-.008,5.117-.008" transform="translate(7.264 17.614)" fill="#fff"/>
    <path id="Path_1254" data-name="Path 1254" d="M10.392,133.688c2.327,0,4.653.018,6.978-.014.518-.007.639.153.607.633a16.943,16.943,0,0,0,0,1.857c.017.371-.108.475-.475.471-1.82-.017-3.64-.008-5.46-.008H4.16a2.045,2.045,0,0,0-.449.014.814.814,0,0,0-.7.643.692.692,0,0,0,.506.78c.828.35,1.659.693,2.489,1.039,3.232,1.349,6.468,2.688,9.694,4.052a3.39,3.39,0,0,1,2.167,3.934,3.446,3.446,0,0,1-3.342,2.807c-4.69.02-9.38,0-14.07.015-.347,0-.458-.105-.447-.447.022-.656.034-1.315,0-1.969-.025-.438.136-.523.543-.522,4.447.014,8.893.009,13.34.009.149,0,.3,0,.45,0,.31,0,.552-.084.624-.432a.577.577,0,0,0-.405-.705q-.93-.394-1.865-.782c-3.542-1.479-7.092-2.943-10.625-4.444a3.379,3.379,0,0,1-2.046-3.495,3.413,3.413,0,0,1,2.35-3.243,3.751,3.751,0,0,1,1.27-.194q3.378.007,6.754,0" transform="translate(0 17.614)" fill="#fff"/>
    <path id="Path_1255" data-name="Path 1255" d="M74.952,128.138c-1.745,0-3.489.008-5.233,0a3.491,3.491,0,0,1-3.7-3.7q-.007-4.361,0-8.723a3.536,3.536,0,0,1,3.8-3.789q5.149-.007,10.3,0a3.517,3.517,0,0,1,3.8,3.834q.005,4.305,0,8.609a3.483,3.483,0,0,1-3.791,3.772q-2.589,0-5.177,0m.032-2.919c1.519,0,3.038,0,4.556,0,1.063,0,1.457-.394,1.457-1.457q.005-3.714,0-7.427c0-1.048-.405-1.459-1.47-1.461q-4.556-.01-9.113,0c-1.062,0-1.453.407-1.455,1.474q0,3.713,0,7.426c0,1.066.384,1.442,1.468,1.445,1.519,0,3.038,0,4.557,0" transform="translate(8.699 14.747)" fill="#fff"/>
    <path id="Path_1256" data-name="Path 1256" d="M114.726,141.844c0,2.514-.008,5.027.009,7.541,0,.4-.083.574-.525.547a14.966,14.966,0,0,0-1.912,0c-.475.032-.552-.163-.548-.581.019-1.838,0-3.677.017-5.515,0-.424-.091-.577-.552-.574q-4.7.032-9.4,0c-.43,0-.575.149-.66.536-.409,1.866-.845,3.726-1.257,5.592-.083.374-.2.576-.65.543a16.078,16.078,0,0,0-1.968,0c-.429.02-.531-.072-.427-.519.789-3.375,1.548-6.756,2.317-10.135.392-1.717.794-3.431,1.166-5.152.076-.349.216-.445.56-.444q6.668.015,13.338,0c.4,0,.5.124.5.509-.015,2.552-.008,5.1-.008,7.655m-7.9-1.51c1.481,0,2.964-.008,4.446.006.338,0,.509-.052.5-.452-.027-.937-.02-1.875,0-2.814.006-.328-.077-.457-.436-.455q-4.051.02-8.1,0c-.287,0-.439.064-.5.371-.2.972-.428,1.94-.663,2.9-.087.356.015.449.376.445,1.463-.019,2.927-.008,4.39-.008" transform="translate(12.757 17.615)" fill="#fff"/>
    <path id="Path_1257" data-name="Path 1257" d="M36.7,141.807c0-2.532.01-5.065-.01-7.6,0-.427.12-.591.538-.521a.183.183,0,0,0,.055,0,7.337,7.337,0,0,1,4.533,1.07c3.021,1.657,6.114,3.18,9.178,4.759.695.358.7.357.7-.4,0-1.632.012-3.264-.009-4.895-.006-.41.091-.568.527-.541a14.3,14.3,0,0,0,1.856,0c.458-.031.555.138.552.567-.016,3.658-.009,7.316-.009,10.973,0,1.389-.02,2.777.011,4.164.01.461-.141.574-.572.55a18.134,18.134,0,0,0-1.856,0c-.389.018-.514-.1-.509-.5.018-1.895,0-3.789.016-5.684a.743.743,0,0,0-.461-.781q-5.5-2.82-10.984-5.67c-.591-.306-.593-.3-.593.393,0,3.882-.008,7.765.01,11.648,0,.458-.1.632-.586.6a14.722,14.722,0,0,0-1.856,0c-.42.024-.541-.1-.538-.531.02-2.532.01-5.065.01-7.6" transform="translate(4.834 17.61)" fill="#fff"/>
    <path id="Path_1258" data-name="Path 1258" d="M89.105,133.688c2.307,0,4.613.019,6.918-.014.539-.008.669.165.634.661a12.981,12.981,0,0,0,0,1.743c.031.447-.119.561-.56.559-4.031-.017-8.063-.01-12.094-.009-.394,0-.789-.014-1.182.006a1.079,1.079,0,0,0-1.145,1.13q-.027,4.051,0,8.1a1.085,1.085,0,0,0,1.217,1.113c.937.015,1.875,0,2.812,0,3.432,0,6.863.015,10.295-.016.566,0,.7.164.66.69a15.908,15.908,0,0,0,0,1.8c.012.33-.072.457-.433.456-4.688-.012-9.376.008-14.063-.018a3.441,3.441,0,0,1-3.449-3.5c-.044-3.056-.049-6.114,0-9.17a3.46,3.46,0,0,1,3.7-3.532c2.232-.006,4.463,0,6.694,0" transform="translate(10.367 17.614)" fill="#fff"/>
    <path id="Path_1259" data-name="Path 1259" d="M94.75,128.14c-2.176,0-4.353,0-6.529,0a3.528,3.528,0,0,1-3.784-3.8q0-4.278,0-8.556a3.569,3.569,0,0,1,3.858-3.857c4.5,0,9.005.006,13.508-.011.466,0,.627.122.594.594a11.05,11.05,0,0,0,0,1.687c.044.535-.119.7-.675.693-4.183-.025-8.367-.014-12.55-.014-.188,0-.376-.006-.562.007-.775.054-1.2.427-1.206,1.2q-.036,4,0,7.993c.008.8.478,1.145,1.417,1.145q6.388.005,12.777,0c.853,0,.782-.112.787.779,0,.506-.031,1.015.009,1.519.038.483-.1.639-.612.634-2.345-.031-4.69-.014-7.035-.014" transform="translate(11.126 14.746)" fill="#fff"/>
    <path id="Path_1260" data-name="Path 1260" d="M121.551,112.042c-.171.108-.34.217-.513.321-2.443,1.465-4.882,2.936-7.335,4.384-.357.211-.414.337-.154.7q3.684,5.076,7.33,10.179c.118.164.23.333.413.6-1.212,0-2.325,0-3.437,0-.281,0-.355-.252-.48-.426-2.1-2.921-4.214-5.84-6.293-8.778-.289-.409-.473-.418-.873-.164-1.314.833-2.652,1.628-3.992,2.417a.76.76,0,0,0-.435.756c.02,1.876-.007,3.753.021,5.628.007.489-.157.605-.609.577a15.17,15.17,0,0,0-1.8,0c-.438.026-.57-.1-.567-.557.021-2.608.01-5.215.01-7.823,0-2.458.011-4.915-.009-7.373,0-.436.1-.6.559-.567a17.123,17.123,0,0,0,1.913,0c.407-.02.5.137.5.516-.017,1.708-.01,3.415,0,5.122,0,.175-.1.418.1.515.152.076.3-.109.441-.192q4.787-2.837,9.57-5.687a1.832,1.832,0,0,1,1-.272c1.534.015,3.068.007,4.6.007l.041.119" transform="translate(13.55 14.746)" fill="#fff"/>
    <path id="Path_1261" data-name="Path 1261" d="M25.895,146.38c0-.994-.018-1.989.009-2.981a.634.634,0,0,0-.5-.73c-1.5-.538-2.979-1.115-4.466-1.68a3.572,3.572,0,0,1-2.556-3.684c0-1.068.009-2.137-.007-3.206,0-.314.085-.428.41-.419q1.068.032,2.137,0c.321-.009.42.1.414.417-.017.918-.01,1.837,0,2.756a1.349,1.349,0,0,0,1.08,1.556c1.505.57,3.015,1.126,4.517,1.707a1.1,1.1,0,0,0,.86-.009c1.5-.578,3.011-1.137,4.517-1.706.856-.324,1.057-.621,1.059-1.562,0-.9.012-1.8-.006-2.7-.007-.327.068-.474.431-.461.712.026,1.425.017,2.138,0,.28-.006.4.069.4.375-.017,1.237.011,2.475-.026,3.711a3.214,3.214,0,0,1-2.131,3.033c-1.624.676-3.276,1.28-4.924,1.9a.54.54,0,0,0-.416.6c.016,2.043,0,4.087.017,6.131,0,.4-.113.516-.5.5-.654-.029-1.313-.032-1.967,0-.41.02-.5-.134-.492-.513.024-1.012.008-2.025.008-3.038" transform="translate(2.422 17.614)" fill="#fff"/>
    <path id="Path_1262" data-name="Path 1262" d="M57.013,128.191c-2.794,0-5.588-.009-8.382.009-.449,0-.608-.1-.607-.582q.027-7.566,0-15.133c0-.426.086-.6.552-.573a14.291,14.291,0,0,0,1.855,0c.449-.027.57.127.567.566-.019,2.494-.009,4.988-.009,7.482,0,1.538.019,3.076-.011,4.613-.01.5.112.664.644.662,4.556-.023,9.113,0,13.668-.027.578,0,.758.149.708.718a11.943,11.943,0,0,0,0,1.743c.026.436-.141.532-.55.53-2.812-.016-5.625-.008-8.437-.008" transform="translate(6.328 14.746)" fill="#fff"/>
    <path id="Path_1263" data-name="Path 1263" d="M125.539,143.311c0,2.026-.014,4.053.01,6.079.006.43-.12.549-.535.524a10.181,10.181,0,0,0-1.743,0c-.609.067-.688-.182-.686-.716.022-3.977,0-7.955.023-11.932,0-.5-.1-.664-.634-.655-2.12.034-4.24,0-6.359.024-.43.006-.551-.121-.53-.538.033-.636.028-1.277,0-1.913-.017-.388.1-.515.5-.51,1.781.02,3.564.009,5.346.009,3.846,0,7.692.008,11.537-.01.466,0,.624.12.59.591a12.463,12.463,0,0,0,0,1.744c.035.481-.092.638-.607.63-2.12-.033-4.241,0-6.361-.024-.438,0-.569.108-.565.558.025,2.045.011,4.09.011,6.135" transform="translate(15.164 17.614)" fill="#fff"/>
    <path id="Path_1264" data-name="Path 1264" d="M76.5,141.8c0,2.532-.009,5.062.009,7.594,0,.407-.087.566-.524.542-.693-.036-1.388-.018-2.081-.006-.263,0-.373-.085-.362-.355.014-.355,0-.712,0-1.068,0-4.743.006-9.487-.01-14.231,0-.457.1-.632.583-.6a14.7,14.7,0,0,0,1.855,0c.415-.024.542.1.539.526-.02,2.531-.01,5.061-.01,7.593" transform="translate(9.689 17.614)" fill="#fff"/>
    <path id="Path_1265" data-name="Path 1265" d="M34.955,164.311c0-1.029.015-1.961-.007-2.893-.009-.424.066-.652.574-.654s.578.234.573.654c-.015,1.406,0,2.812-.012,4.219,0,.247.169.645-.254.688-.4.041-.86.192-1.158-.307-.547-.918-1.118-1.82-1.691-2.721-.092-.144-.126-.362-.441-.392,0,.94-.029,1.869.012,2.793.024.531-.164.693-.672.663-.366-.022-.482-.149-.478-.51.015-1.463,0-2.926.012-4.389,0-.232-.157-.61.222-.653.4-.044.865-.211,1.165.284.534.882,1.084,1.753,1.635,2.623a1.346,1.346,0,0,0,.519.593" transform="translate(4.135 21.181)" fill="#fff"/>
    <path id="Path_1266" data-name="Path 1266" d="M67.532,164.208c0-.946.017-1.892-.009-2.837-.011-.422.094-.6.556-.608.484-.007.6.177.59.627-.025,1.423,0,2.848-.017,4.27,0,.232.164.609-.215.655-.4.05-.868.212-1.168-.274q-.823-1.339-1.665-2.668c-.1-.164-.156-.38-.411-.474a1.313,1.313,0,0,0-.07.65c-.006.712,0,1.424,0,2.136,0,.625-.281.818-.882.656-.247-.067-.26-.244-.26-.433q-.005-2.36,0-4.721c0-.2.035-.409.284-.4.387.018.83-.18,1.115.293.512.849,1.043,1.686,1.57,2.527.136.218.28.431.42.646l.17-.049" transform="translate(8.43 21.183)" fill="#fff"/>
    <path id="Path_1267" data-name="Path 1267" d="M115.663,162.837c0,1.024-.02,1.953.008,2.88.015.486-.143.668-.643.647-.4-.017-.517-.17-.515-.541.011-1.443,0-2.885.011-4.327,0-.248-.165-.647.252-.69.395-.042.856-.2,1.153.3.534.9,1.1,1.784,1.659,2.67a1.162,1.162,0,0,0,.478.525v-1.055c0-.6.02-1.2-.007-1.8-.019-.44.04-.7.589-.693.527,0,.557.256.552.663-.016,1.4,0,2.81-.015,4.215,0,.241.188.641-.244.686-.4.041-.86.188-1.156-.309-.529-.883-1.083-1.751-1.631-2.621a1.254,1.254,0,0,0-.492-.558" transform="translate(15.087 21.182)" fill="#fff"/>
    <path id="Path_1268" data-name="Path 1268" d="M107.507,163.574a2.739,2.739,0,1,1,2.735,2.917,2.713,2.713,0,0,1-2.735-2.917m4.258-.11a5.737,5.737,0,0,0-.148-.741,1.4,1.4,0,0,0-1.381-1.037,1.377,1.377,0,0,0-1.358.987,2.54,2.54,0,0,0,.092,2.024,1.386,1.386,0,0,0,1.658.716c.714-.2,1.139-.878,1.137-1.949" transform="translate(14.166 21.171)" fill="#fff"/>
    <path id="Path_1269" data-name="Path 1269" d="M52.516,163.618c0,.75-.019,1.5.007,2.25.017.49-.277.483-.62.484s-.638,0-.605-.491-.008-.974.012-1.461c.016-.346-.127-.474-.458-.465-.45.011-.9.012-1.35,0-.332-.01-.474.113-.459.46.022.506-.008,1.013.009,1.519.016.472-.3.44-.607.433-.29-.006-.627.076-.624-.41q.014-2.392,0-4.783c0-.46.326-.376.592-.375.285,0,.643-.078.635.405-.008.431.009.864-.008,1.295-.012.309.1.446.419.437.487-.014.974-.009,1.462,0,.287,0,.4-.128.389-.414-.016-.43.011-.864-.01-1.294-.025-.483.307-.426.6-.428s.624-.055.616.421c-.014.807,0,1.613,0,2.42" transform="translate(6.301 21.185)" fill="#fff"/>
    <path id="Path_1270" data-name="Path 1270" d="M79.553,163.577a2.737,2.737,0,1,1,2.739,2.913,2.713,2.713,0,0,1-2.739-2.913m1.221-.007a2.562,2.562,0,0,0,.113.831,1.433,1.433,0,0,0,1.415,1.073,1.456,1.456,0,0,0,1.393-1.106,2.633,2.633,0,0,0-.038-1.659,1.357,1.357,0,0,0-1-.968c-1.09-.257-1.871.5-1.881,1.829" transform="translate(10.483 21.171)" fill="#fff"/>
    <path id="Path_1271" data-name="Path 1271" d="M29.854,163.648a2.736,2.736,0,1,1-2.679-2.978,2.7,2.7,0,0,1,2.679,2.978m-1.222-.016a2.888,2.888,0,0,0-.106-.833,1.441,1.441,0,0,0-2.8-.043,2.575,2.575,0,0,0,.109,1.919,1.35,1.35,0,0,0,1.261.8c.914.029,1.527-.714,1.532-1.839" transform="translate(3.215 21.171)" fill="#fff"/>
    <path id="Path_1272" data-name="Path 1272" d="M123.146,166.485a2.207,2.207,0,0,1-2.286-1.286c-.063-.2-.275-.465.053-.643a.969.969,0,0,1,1.041.249,1.36,1.36,0,0,0,1.746.663.649.649,0,0,0,.517-.593.589.589,0,0,0-.445-.587c-.531-.181-1.08-.308-1.612-.488-.925-.311-1.3-.832-1.209-1.644a1.235,1.235,0,0,1,.1-.377,1.935,1.935,0,0,1,1.936-1.093,2.029,2.029,0,0,1,2.078,1.051c.1.2.34.566-.016.666-.32.091-.773.264-1.05-.2a1.152,1.152,0,0,0-1.388-.534.625.625,0,0,0-.493.549c-.033.3.173.449.413.531.389.131.787.244,1.185.347,1.259.324,1.772.874,1.675,1.809-.1.917-.843,1.5-2.019,1.581-.075.006-.151,0-.225,0" transform="translate(15.909 21.173)" fill="#fff"/>
    <path id="Path_1273" data-name="Path 1273" d="M76.027,166.491a2.281,2.281,0,0,1-2.334-1.234c-.083-.223-.283-.5.035-.695a.927.927,0,0,1,1.032.243,1.343,1.343,0,0,0,1.694.68c.312-.093.56-.263.577-.605a.619.619,0,0,0-.493-.612c-.532-.175-1.08-.3-1.612-.481a1.531,1.531,0,0,1-1.118-1.01,1.546,1.546,0,0,1,.739-1.78,2.869,2.869,0,0,1,2.786.1,1.6,1.6,0,0,1,.457.486c.14.259.4.57.07.845-.237.195-.909-.014-1.072-.276a1.221,1.221,0,0,0-1.474-.443.591.591,0,0,0-.384.57.5.5,0,0,0,.414.472c.572.177,1.158.307,1.724.5a1.549,1.549,0,0,1,.878,2.394,1.8,1.8,0,0,1-1.045.715,2.685,2.685,0,0,1-.877.137" transform="translate(9.692 21.173)" fill="#fff"/>
    <path id="Path_1274" data-name="Path 1274" d="M92.059,162.864c0-.561.012-1.124,0-1.685-.014-.438.274-.418.564-.407s.633-.085.629.4c-.007,1.012-.017,2.024,0,3.034.02.924.493,1.343,1.341,1.239a.954.954,0,0,0,.965-1.083c.025-1.011.036-2.024,0-3.033-.016-.472.172-.572.589-.569s.67.057.648.578c-.04.954-.006,1.91-.019,2.866a1.941,1.941,0,0,1-1.193,2.037,2.9,2.9,0,0,1-2.883-.307,1.723,1.723,0,0,1-.634-1.386c-.019-.561,0-1.124,0-1.685h-.008" transform="translate(12.13 21.183)" fill="#fff"/>
    <path id="Path_1275" data-name="Path 1275" d="M56.676,165.111a3.075,3.075,0,0,1-.418,0,.775.775,0,0,0-1.03.707c-.045.227-.1.51-.418.523-.275.01-.612.127-.81-.072-.217-.218.053-.483.136-.71.53-1.437,1.1-2.86,1.612-4.3.17-.48.484-.469.871-.484a.651.651,0,0,1,.75.491c.536,1.5,1.11,2.975,1.651,4.468.063.177.314.4.024.592a1.338,1.338,0,0,1-1.094-.169.407.407,0,0,1-.063-.156c-.12-.8-.586-1.067-1.211-.884m-.162-2.853c-.182.481-.325.841-.455,1.2-.267.742-.254.758.561.748.075,0,.149,0,.224,0,.282.007.376-.14.285-.389a8.639,8.639,0,0,0-.616-1.561" transform="translate(7.105 21.184)" fill="#fff"/>
    <path id="Path_1276" data-name="Path 1276" d="M42.291,163.6A1.674,1.674,0,0,0,43.41,165.4a1.134,1.134,0,0,0,1.51-.7c.213-.655.679-.458,1.088-.447.3.008.187.254.148.43a2.439,2.439,0,0,1-3.281,1.648,2.934,2.934,0,0,1-1.617-3.86,2.667,2.667,0,0,1,3.452-1.658,2.087,2.087,0,0,1,1.24,1.076c.109.225.389.578.04.72a.792.792,0,0,1-1.056-.207,1.258,1.258,0,0,0-1.51-.663c-.736.2-1.134.853-1.133,1.857" transform="translate(5.411 21.169)" fill="#fff"/>
    <path id="Path_1277" data-name="Path 1277" d="M99.9,164.051c0-.543-.027-1.089.008-1.63.033-.506-.179-.685-.656-.634-.148.016-.3-.01-.448,0-.372.038-.591-.024-.584-.493.006-.441.179-.535.573-.529,1.143.018,2.286.016,3.429,0,.4,0,.556.119.556.549s-.213.475-.556.474c-1.3-.006-1.119-.108-1.128,1.151-.008.974-.021,1.949.006,2.923.014.488-.266.481-.611.486-.362.006-.619-.033-.6-.5.032-.6.008-1.2.008-1.8" transform="translate(12.943 21.184)" fill="#fff"/>
    <path id="Path_1278" data-name="Path 1278" d="M86.547,163.562c0-.768.018-1.537-.006-2.3-.017-.539.333-.474.676-.486s.558.05.548.486c-.027,1.1-.009,2.21-.008,3.316,0,.761,0,.762.788.762.506,0,1.013.009,1.518-.01.383-.015.418.2.409.5-.009.277.011.531-.387.527q-1.547-.015-3.092,0c-.343,0-.455-.155-.449-.483.014-.767,0-1.536,0-2.3" transform="translate(11.403 21.184)" fill="#fff"/>
    <path id="Path_1279" data-name="Path 1279" d="M105.455,163.577c0,.75-.023,1.5.008,2.25.018.439-.164.558-.564.533-.343-.022-.678.043-.67-.493q.029-2.307,0-4.613c-.007-.5.3-.47.629-.472s.627,0,.605.489c-.033.767-.007,1.538-.007,2.307" transform="translate(13.734 21.186)" fill="#fff"/>
    <path id="Path_1280" data-name="Path 1280" d="M61.7,163.561c0,.787-.016,1.573.007,2.36.011.419-.222.456-.535.435s-.676.1-.675-.42c0-1.572.007-3.145-.006-4.718,0-.521.353-.418.66-.433.336-.017.574.029.557.474-.031.767-.008,1.536-.008,2.3" transform="translate(7.971 21.186)" fill="#fff"/>
  </g>
</svg>
