<svg xmlns="http://www.w3.org/2000/svg" width="41.659" height="42.965" viewBox="0 0 41.659 42.965"><path d="M10.6,42.962a1.091,1.091,0,0,1-.169-.031V37.792H.026C.016,37.578,0,37.411,0,37.244q0-14.5.005-29a2.723,2.723,0,0,1,.136-.836C.91,5.075,1.7,2.749,2.459.414A.492.492,0,0,1,3.02,0q19.1.014,38.2.008h.427v.54q0,12.5.007,24.993a1.066,1.066,0,0,1-.347.831Q35.77,31.892,30.25,37.434a1.057,1.057,0,0,1-.831.345c-1.057-.007-2.113-.007-3.169-.007-1.185,0-2.371,0-3.556-.01a1.3,1.3,0,0,0-1.042.421c-1.479,1.511-2.979,3-4.484,4.487a.923.923,0,0,1-.556.283q-1.556.015-3.111.013Q12.051,42.965,10.6,42.962ZM6.468,31.308h9.144v5.2c.141-.135.221-.207.3-.282,1.542-1.538,3.087-3.073,4.62-4.62a.955.955,0,0,1,.748-.309q4.793.016,9.586-.006A1.092,1.092,0,0,0,31.555,31c1.992-1.964,3.962-3.951,5.949-5.921a.956.956,0,0,0,.3-.749Q37.8,14.341,37.8,4.35V3.874H6.468ZM27.41,23.388V11.776h3.795V23.388Zm-10.464-.016v-11.6H20.81v11.6Z" transform="translate(0 0)" fill="#3e3e3e"/></svg>