<svg xmlns="http://www.w3.org/2000/svg" width="41.659" height="34.365" viewBox="0 0 41.659 34.365"><path d="M41.574.737a.9.9,0,0,0-.606-.66A3.141,3.141,0,0,0,39.33.2S2.83,13.313.743,14.768c-.448.314-.6.495-.672.706-.361,1.033.762,1.493.762,1.493l9.406,3.065.085.01,4.409,12.2a2.846,2.846,0,0,0,.927,1.12.061.061,0,0,0,.028.016.96.96,0,0,0,.113.038.514.514,0,0,0,.115.012h0c.37,0,.963-.314,1.918-1.269,2.015-2.015,3.968-3.7,4.945-4.522,3.234,2.232,6.714,4.7,8.216,6a2.616,2.616,0,0,0,1.906.734,2.146,2.146,0,0,0,1.823-1.618S41.378,5.974,41.6,2.388c.019-.354.05-.578.054-.818a3.013,3.013,0,0,0-.082-.833M16.348,22.664a.85.85,0,0,0-.109.174.371.371,0,0,0-.028.128l-.554,5.877L12.691,18.755C18.2,15.278,32.413,6.344,33.367,6c.177-.056.306,0,.271.125-.448,1.573-17.29,16.544-17.29,16.544" transform="translate(0 0)" fill="#3e3e3e"/></svg>