<?xml version="1.0" encoding="utf-8"?>
<!-- Generator: Adobe Illustrator 26.4.1, SVG Export Plug-In . SVG Version: 6.00 Build 0)  -->
<svg version="1.1" id="Layer_1" xmlns="http://www.w3.org/2000/svg" xmlns:xlink="http://www.w3.org/1999/xlink" x="0px" y="0px"
	 viewBox="0 0 1500 755.4" style="enable-background:new 0 0 1500 755.4;" xml:space="preserve">
<style type="text/css">
	
		.st0{clip-path:url(#SVGID_00000150060597910048403040000001499978626926164147_);fill:url(#XMLID_00000060013197171243940370000002982268248678972862_);}
	
		.st1{clip-path:url(#SVGID_00000112619893350106242290000017375779450581532311_);fill:url(#XMLID_00000080912623515746499680000015055880642666637203_);}
	
		.st2{clip-path:url(#SVGID_00000027568114904939434360000009714974602189439662_);fill:url(#XMLID_00000049909028503570865680000003121240709137920187_);}
	.st3{fill:#26A9E0;}
</style>
<g>
	<g>
		<g>
			<defs>
				<path id="SVGID_1_" d="M857.4,461.9H740.8L920,556.1l-16.8-97.8C890.5,460.8,875.2,461.9,857.4,461.9"/>
			</defs>
			<clipPath id="SVGID_00000068660935445483750160000013232672862126570669_">
				<use xlink:href="#SVGID_1_"  style="overflow:visible;"/>
			</clipPath>
			
				<linearGradient id="XMLID_00000061443476705180771360000005582852595989003929_" gradientUnits="userSpaceOnUse" x1="66.4612" y1="562.5833" x2="69.649" y2="562.5833" gradientTransform="matrix(56.2242 0 0 56.2242 -2995.9426 -31123.5703)">
				<stop  offset="0" style="stop-color:#00ADEE"/>
				<stop  offset="1" style="stop-color:#1B75BB"/>
			</linearGradient>
			
				<rect id="XMLID_54_" x="740.8" y="458.3" style="clip-path:url(#SVGID_00000068660935445483750160000013232672862126570669_);fill:url(#XMLID_00000061443476705180771360000005582852595989003929_);" width="179.2" height="97.8"/>
		</g>
	</g>
	<g>
		<g>
			<defs>
				<path id="SVGID_00000158745274685153010170000006653319220237585025_" d="M648.9,183l-202.1,29.3L593,354.9l-34.5,201.2
					l179.2-94.2H613.3c-4.2,0-8.4-2.1-10.7-5.7c-2.5-3.6-2.9-8-1.7-11.9l102.6-281.6c1.9-5.2,6.7-8.6,12.4-8.6h99.5L739.3,0
					L648.9,183z"/>
			</defs>
			<clipPath id="SVGID_00000121970338546515093150000004384432141698165438_">
				<use xlink:href="#SVGID_00000158745274685153010170000006653319220237585025_"  style="overflow:visible;"/>
			</clipPath>
			
				<linearGradient id="XMLID_00000085242332274210949110000013281866279633138856_" gradientUnits="userSpaceOnUse" x1="62.4247" y1="555.1293" x2="65.6116" y2="555.1293" gradientTransform="matrix(115.6309 0 0 115.6309 -6771.4028 -63912.0352)">
				<stop  offset="0" style="stop-color:#00ADEE"/>
				<stop  offset="1" style="stop-color:#1B75BB"/>
			</linearGradient>
			
				<rect id="XMLID_52_" x="446.8" y="0" style="clip-path:url(#SVGID_00000121970338546515093150000004384432141698165438_);fill:url(#XMLID_00000085242332274210949110000013281866279633138856_);" width="368.5" height="556.1"/>
		</g>
	</g>
	<g>
		<g>
			<defs>
				<path id="SVGID_00000153671544898351581900000005733041555923115175_" d="M755.2,341.1h122.3c0,2.5,0,5-0.2,7.5
					c-0.2,2.5-0.6,4.2-1.3,5.2l-1,2.7c-0.4,0.4-1.9,3.1-4.8,8.6c-1,1-2.7,2.3-4.8,3.4c-2.1,1.3-4.2,2.5-6.3,3.8
					c-2.1,1.3-5,2.7-8.6,4.6H741.6L755.2,341.1z M791.5,239.5h108.9c0.6,0,2.3,1.5,5,4.6c2.7,2.9,4.6,5.4,5.7,7.1
					c0.4,1.5,0.6,2.3,1,2.7l-1,2.7c-0.4,1-1.3,2.5-2.3,4.6c-1.3,1.9-2.5,4-4,6.1c-1.5,2.1-2.7,4-4,5.7c-1.3,1.7-2.1,2.3-2.3,2.3h-85
					l-51.1,45.2L791.5,239.5z M716.1,167.3L613.5,448.9h243.9c18.8,0,34.5-1.3,47.1-4s23.2-6.7,32.2-12.1c8.8-5.4,16.1-12.6,22-21.6
					c5.9-8.8,11.5-19.5,16.8-31.8l2.1-5.9c1.7-4.6,3.6-9.4,5.2-14.4c1.7-5,2.7-9.8,2.7-14.9c-0.4-7.1-2.1-13.6-5.2-19.5
					s-6.7-10.3-10.7-13.6c4.2-2.1,9-5.4,14-9.8c5-4.4,9.8-9.6,14.4-15.5c4.4-5.9,8.2-12.1,11.1-18.8c2.9-6.7,4.6-13.6,4.6-20.7v-1
					c0-9.8-0.8-19.7-2.3-29.3c-1.7-9.6-4.4-17.8-8.6-24.9c-4-7.1-9.6-12.8-16.5-17.2c-6.9-4.4-15.7-6.7-26.4-6.7H716.1V167.3z"/>
			</defs>
			<clipPath id="SVGID_00000093879377769604231650000000992696023429566121_">
				<use xlink:href="#SVGID_00000153671544898351581900000005733041555923115175_"  style="overflow:visible;"/>
			</clipPath>
			
				<linearGradient id="XMLID_00000000928276452034642250000005846025862795285142_" gradientUnits="userSpaceOnUse" x1="63.3021" y1="554.9447" x2="66.4885" y2="554.9447" gradientTransform="matrix(125.573 0 0 125.573 -7335.5508 -69377.9688)">
				<stop  offset="0" style="stop-color:#00ADEE"/>
				<stop  offset="1" style="stop-color:#1B75BB"/>
			</linearGradient>
			
				<rect id="XMLID_50_" x="613.5" y="167.3" style="clip-path:url(#SVGID_00000093879377769604231650000000992696023429566121_);fill:url(#XMLID_00000000928276452034642250000005846025862795285142_);" width="400.1" height="281.6"/>
		</g>
	</g>
	<path class="st3" d="M165.2,620.8c5,0,9.2,1,12.6,3.1s5.9,4.8,8,8.2c1.9,3.4,3.4,7.3,4,11.9c0.8,4.6,1,9.2,1,14v0.4
		c0,3.4-0.6,6.7-2.1,9.8c-1.5,3.1-3.1,6.3-5.2,9s-4.4,5.2-6.9,7.3c-2.5,2.1-4.6,3.8-6.7,4.6c1.9,1.5,3.6,3.8,5,6.5
		c1.5,2.7,2.3,5.9,2.5,9.2c0,2.3-0.4,4.8-1.3,7.1c-0.8,2.3-1.7,4.6-2.5,6.9l-1,2.7c-2.5,5.9-5.2,10.9-8,15.3
		c-2.7,4.2-6.3,7.7-10.5,10.3c-4.2,2.7-9.4,4.6-15.3,5.9c-6.1,1.3-13.4,1.9-22.4,1.9H0l49-134.4h116.2V620.8z M113.1,720.7
		c1.7-0.8,3.1-1.5,4-2.1c1-0.6,2.1-1.3,3.1-1.7c1-0.6,1.7-1,2.3-1.7c1.3-2.5,2.1-4,2.3-4l0.4-1.3c0.4-0.4,0.6-1.3,0.6-2.5
		s0.2-2.3,0.2-3.6H67.8l-6.5,17h51.7V720.7z M95.3,672.3h40.6c0.2,0,0.6-0.4,1-1c0.6-0.8,1.3-1.7,1.9-2.7c0.6-1,1.3-1.9,1.9-2.9
		c0.6-0.8,1-1.7,1-2.1l0.4-1.3c-0.2-0.2-0.4-0.6-0.4-1.3c-0.4-0.8-1.5-1.9-2.7-3.4c-1.3-1.5-2.1-2.1-2.3-2.1H84.8l-14,38.5
		L95.3,672.3z"/>
	<path id="XMLID_43_" class="st3" d="M174.6,755l49-134.4H272l-36.4,100.1H316c0.2,0-0.8,1.5-2.9,4.4c-2.1,2.9-4.8,6.3-8,10.1
		c-3.1,3.8-6.5,7.5-10.1,11.3c-3.6,3.8-6.5,6.7-8.8,8.6H174.6z"/>
	<path class="st3" d="M492.7,710.4c-5,8.8-11.3,16.5-18.8,23c-7.5,6.5-15.9,11.7-25.3,15.7c-9.4,4-19.1,5.9-29.1,5.9h-25.3
		c-9.2,0-18-0.8-25.8-2.3c-8-1.5-14.9-4.2-20.5-7.7c-5.7-3.6-10.3-8.6-13.6-14.9s-5-14-5-23.7c0-2.1,0-4.2,0.2-6.3s0.4-4.4,0.8-6.9
		c1.3-9.4,4.4-18.6,9.4-27.4c4.8-8.8,10.9-16.5,18.2-23.2s15.3-12.1,23.9-16.1c8.8-4,17.6-6.1,26.6-6.1h33.5
		c20.5,0,36,3.6,46.5,10.5c10.5,6.9,15.9,18.6,15.9,34.8c0,5-0.4,10.5-1.5,16.3C501,692.4,497.7,701.6,492.7,710.4 M377.7,691.8v1.5
		c0,3.1,0.6,6.3,1.7,9.4c1.3,3.4,2.7,6.3,4.8,9s4.4,4.8,7.1,6.5c2.7,1.7,5.7,2.5,8.6,2.5h16.8c1.7,0,4.2-0.6,7.3-2.1
		c3.1-1.5,6.3-3.4,9.8-5.7c3.4-2.3,6.5-5,9.6-8c3.1-2.9,5.2-5.9,6.9-8.8c1.5-2.3,2.5-4.2,2.7-5.7l1-2.5c0.4-1.7,0.4-2.5,0.4-2.3
		c0.2-1.3,0.2-2.7,0.4-4.2c0-1.5,0.2-2.9,0.2-4.4c0-2.7-0.2-5.4-0.8-8.2c-0.4-2.7-1.5-5-3.1-7.3c-1.5-2.1-3.6-3.8-6.3-5
		s-6.1-1.9-10.3-1.9h-20.5c-2.7,0-5.7,0.6-8.8,2.1c-3.1,1.5-6.3,3.4-9.2,5.7c-3.1,2.3-5.9,5-8.6,8c-2.7,2.9-4.6,5.9-6.3,8.8
		c-0.8,2.1-1.7,4-2.3,5.7c-0.6,1.7-1,3.4-1.3,4.6C377.7,690.1,377.7,690.7,377.7,691.8"/>
	<path id="XMLID_40_" class="st3" d="M515.5,693c0-8.2,1.7-16.5,5.2-25.1c3.6-8.6,8.4-16.3,14.4-23.2c6.1-6.9,13.2-12.6,20.9-17.2
		c8-4.4,16.3-6.7,25.3-6.7h104.7c-4.8,6.5-9.8,12.6-14.9,18.2c-5,5.7-10.5,11.1-16.3,16.1h-66c-2.3,0-4.6,0.6-6.9,2.1
		c-2.5,1.5-4.8,3.4-7.1,5.7c-2.3,2.3-4.4,5-6.3,8s-3.4,5.9-4.4,8.8c-1.3,4.4-2.1,8-2.1,10.5c0,3.1,0.8,6.7,2.5,10.3
		c1.7,3.6,3.8,6.9,6.5,10.1c2.7,3.1,5.4,5.7,8.6,7.5c3.1,2.1,6.1,3.1,9,3.1h60.5c-4,5.7-8.4,11.5-13.2,17.6
		c-4.8,6.1-10.5,11.5-17,16.5h-20.3c-10.5,0-20.7-0.8-30.6-2.7c-10.1-1.9-18.8-5-26.8-9.8c-8-4.6-14.2-10.9-19.1-18.8
		c-4.8-8-7.3-18-7.3-30.2V693H515.5z"/>
	<polygon id="XMLID_39_" class="st3" points="699.3,620.8 747.9,620.8 725.9,681.1 809.9,620.8 864.1,620.8 776.4,688 825,755 
		770.7,755 721.1,694.7 699.1,755 650.3,755 	"/>
	<path id="XMLID_38_" class="st3" d="M947.7,712.5v-1.5c0-1.3-0.2-2.7-0.8-4.2c-0.4-1.5-1.5-2.1-2.7-2.1h-50.7
		c-5,0-9.6-1.3-13.6-3.8c-4-2.5-7.5-5.7-10.5-9.4c-2.9-3.8-5.2-8-6.7-12.6c-1.5-4.6-2.3-9-2.3-13.4c0-4,1.3-8.6,3.6-13.8
		c2.3-5.2,5.4-10.1,9.2-14.7c3.8-4.6,8-8.6,12.8-11.7c4.8-3.1,9.4-4.6,14.2-4.6h129.2c-4,5.7-8.4,11.5-13.4,17.2
		c-5,5.7-10.5,11.5-16.5,17.2h-83.8c-1.9,0-3.6,1.3-4.8,3.8c-1.3,2.5-2.1,4.6-2.1,6.1v1.3c0,0.2,0.4,0.6,1,1c0.6,0.6,1.3,1,1.5,1.5
		c0.6,0.6,1.7,1.3,2.9,1.9c1.3,0.6,1.9,0.8,2.1,0.8h48.2c5.4,0,10.1,1.3,14,4s7.1,5.9,9.4,9.8c2.5,4,4.2,8.2,5.4,12.8
		c1.3,4.6,1.7,8.8,1.7,12.8v1.5c0,4.4-1,9-3.1,14c-2.1,5-4.6,9.6-8,13.8s-7.1,7.7-11.3,10.5c-4.4,2.7-8.8,4.2-13.4,4.2H830
		c0.8-1.7,2.5-4.4,5.2-8.2c2.5-3.8,5.4-7.5,8.4-11.3c2.9-3.8,5.7-7.1,8.2-10.1c2.5-2.9,4-4.4,4.6-4.4h86.3c2.5,0,4-0.8,4.4-2.3
		c0.4-1.5,0.6-3.1,0.6-4.8L947.7,712.5L947.7,712.5z"/>
	<path id="XMLID_37_" class="st3" d="M1071.4,654.9h-47.9v-0.2c0.2-0.6,1.5-2.5,3.8-5.7c2.3-3.1,5-6.5,8.2-10.1
		c3.1-3.8,6.3-7.3,9.6-10.7c3.4-3.6,6.1-5.9,8.6-7.5h127.1c-1.3,2.3-3.1,5.4-5.9,9.2c-2.7,3.8-5.7,7.5-8.8,11.3
		c-3.1,3.8-6.1,6.9-9.2,9.6c-2.9,2.7-5,4-6.5,4h-29.9L1084,755h-48.6L1071.4,654.9z"/>
	<path class="st3" d="M1253.4,755l-5.2-28.7c-0.4,1-1.5,2.9-3.8,5.9c-2.1,2.9-4.4,5.9-7.1,9.2c-2.7,3.1-5.2,6.1-7.7,8.8
		c-2.5,2.7-4.4,4.4-5.7,4.8h-107.2c0.4-1.3,0.4-1.9,0.4-1.7v-0.8l91.3-116.6c0.4-1,1.5-2.3,3.1-4c1.5-1.7,3.1-3.4,5-5
		c1.7-1.7,3.6-3.1,5.2-4.4c1.7-1.3,3.3-1.9,4.4-1.9h42.5c1.7,0,3.3,0.8,4.6,2.7c1.5,1.9,2.7,4.2,3.8,6.9c1,2.7,1.9,5.4,2.7,8.6
		c0.8,2.9,1.5,5.4,1.9,7.5l16.8,108.7L1253.4,755L1253.4,755z M1196.6,721.1h51.5l-8.8-59.7l-42.5,57v2.7H1196.6z"/>
	<path class="st3" d="M1359.1,620.8h113.1c5.7,0,10.5,1.3,14,3.8c3.6,2.5,6.5,5.7,8.6,9.6c2.1,4,3.3,8.2,4.2,12.8
		c0.8,4.6,1,8.8,1,12.8c0,8.6-2.1,15.7-6.3,21.4c-4.2,5.7-9.4,10.1-15.9,13.4c-6.3,3.4-13.4,5.7-20.9,7.1
		c-7.7,1.5-14.9,2.5-21.8,2.9l49.6,50.9h-54.2l-52.1-48.2l-2.7,2.1l-16.8,46.1h-48.6L1359.1,620.8z M1451,659.5
		c0-1.3-0.2-2.5-0.8-3.4c-0.4-0.8-1.7-1.5-3.8-1.5h-50.9l-14.4,39.6l22.4-22.6h40.4c2.5,0,4.4-1,5.4-3.4c1-2.3,1.7-4.2,1.7-5.9
		L1451,659.5L1451,659.5z"/>
</g>
</svg>
