<?xml version="1.0" encoding="utf-8"?>
<!-- Generator: Adobe Illustrator 26.4.1, SVG Export Plug-In . SVG Version: 6.00 Build 0)  -->
<svg version="1.1" id="Layer_1" xmlns="http://www.w3.org/2000/svg" xmlns:xlink="http://www.w3.org/1999/xlink" x="0px" y="0px"
	 viewBox="0 0 467 180.2" style="enable-background:new 0 0 467 180.2;" xml:space="preserve">
<style type="text/css">
	.st0{fill:#999999;}
	.st1{fill:url(#SVGID_1_);}
	.st2{fill:url(#SVGID_00000109731037908079362870000010102788704714945196_);}
	.st3{fill:url(#SVGID_00000070083349575824975840000004825546765155857846_);}
	.st4{fill:url(#SVGID_00000103986252823452553280000015580160164694862477_);}
	.st5{fill:url(#SVGID_00000140727122902887900950000007347536863284095896_);}
	.st6{fill:url(#SVGID_00000094614285016825878380000000067886381308909991_);}
	.st7{fill:url(#SVGID_00000101808644537839544160000017539763692986955179_);}
	.st8{fill:url(#SVGID_00000172435473213358882970000017855112396779801497_);}
</style>
<g>
	<g>
		<g>
			<path class="st0" d="M80.8,149.9L80.8,149.9H9.7c-1,0-2,0.5-2.6,1.4l-2.1,3c0,0.1,0,0.1,0,0.2c0,0.1,0.1,0.1,0.2,0.1h71.1
				c1,0,2-0.5,2.6-1.4l2.1-3v-0.1C81,150,80.9,149.9,80.8,149.9z"/>
		</g>
		<g>
			<path class="st0" d="M448.8,167.3h9.3c3.1,0,6-1.7,7.5-4.4c0.8-1.3,1.2-2.8,1.2-4.4c0-4.8-3.9-8.7-8.7-8.7H458h-71.1
				c-1,0-2,0.5-2.6,1.4l-2.1,3c0,0.1,0,0.1,0,0.2c0,0.1,0.1,0.1,0.2,0.1h75.7c1.1,0,2.1,0.4,2.9,1.2c0.8,0.8,1.2,1.8,1.2,2.9
				c0,2.2-1.9,4-4.2,4h-71c-1,0-2,0.5-2.6,1.3l-2.1,3c0,0.1,0,0.1,0,0.2c0,0.1,0.1,0.1,0.2,0.1h58.3l18.4,12.8h0.1h7.5
				c0.1,0,0.2-0.1,0.2-0.1c0-0.1,0-0.2-0.1-0.2L448.8,167.3z"/>
		</g>
		<g>
			<path class="st0" d="M175.2,149.9h-4.3h-2.5h-0.1l-33.2,27l-33.2-27h-0.1h-2.5H95c-0.1,0-0.2,0.1-0.2,0.2v29.8
				c0,0.1,0.1,0.2,0.2,0.2h4.3c0.1,0,0.2-0.1,0.2-0.2v-26l32.1,26.1h0.1l0,0h6.7h0.1l32.1-26.1v26c0,0.1,0.1,0.2,0.2,0.2h4.3
				c0.1,0,0.2-0.1,0.2-0.2v-29.8C175.4,150,175.3,149.9,175.2,149.9z"/>
		</g>
		<g>
			<path class="st0" d="M273.9,158.6c0-4.8-3.9-8.7-8.7-8.7h-0.1H194c-1,0-2,0.5-2.6,1.4l-2.1,3c0,0.1,0,0.1,0,0.2
				c0,0.1,0.1,0.1,0.2,0.1h75.7c2.2,0,4.1,1.8,4.1,4.1c0,2.2-1.8,4.1-4.1,4.1h-75.8c-0.1,0-0.2,0.1-0.2,0.2v17l0,0
				c0,0.1,0.1,0.2,0.2,0.2h4.3h0.1h71.4l0,0c4.8,0,8.7-3.9,8.7-8.7c0-2.4-1-4.7-2.8-6.4C272.9,163.4,273.9,161.1,273.9,158.6z
				 M269.3,171.4c0,2.2-1.8,4.1-4.1,4.1h-71.3v-8.2h71.3C267.4,167.3,269.3,169.2,269.3,171.4z"/>
		</g>
		<g>
			<path class="st0" d="M78.9,176.8c-0.6-0.8-1.6-1.4-2.6-1.4H11.2l-5.7-8.2h54.8c1,0,2-0.5,2.6-1.4l2.1-3c0-0.1,0-0.1,0-0.2
				c0-0.1-0.1-0.1-0.2-0.1H4.3H3.5c-1.2,0-2.2,0.6-2.8,1.7c-0.6,1.1-0.5,2.3,0.2,3.2l7.7,11.1c0.6,0.8,1.6,1.4,2.6,1.4h2.7l0,0h66.7
				c0.1,0,0.1,0,0.2-0.1c0-0.1,0-0.1,0-0.2L78.9,176.8z"/>
		</g>
		<g>
			<path class="st0" d="M368.1,149.9L368.1,149.9H297c-1,0-2,0.5-2.6,1.4l-2.1,3c0,0.1,0,0.1,0,0.2c0,0.1,0.1,0.1,0.2,0.1h71.1
				c1,0,2-0.5,2.6-1.4l2.1-3v-0.1C368.3,150,368.2,149.9,368.1,149.9z"/>
		</g>
		<g>
			<path class="st0" d="M366.2,176.8c-0.6-0.8-1.6-1.4-2.6-1.4h-65.1l-5.7-8.2h54.8c1,0,2-0.5,2.6-1.4l2.1-3c0-0.1,0-0.1,0-0.2
				c0-0.1-0.1-0.1-0.2-0.1h-60.5h-0.8c-1.2,0-2.2,0.6-2.8,1.7c-0.6,1.1-0.5,2.3,0.2,3.2l7.7,11.1c0.6,0.8,1.6,1.4,2.6,1.4h2.7l0,0
				h66.7c0.1,0,0.1,0,0.2-0.1c0-0.1,0-0.1,0-0.2L366.2,176.8z"/>
		</g>
	</g>
	<g>
		<g>
			<g>
				
					<linearGradient id="SVGID_1_" gradientUnits="userSpaceOnUse" x1="215.2887" y1="118.9746" x2="277.6113" y2="145.1822" gradientTransform="matrix(1 0 0 -1 0 181.4)">
					<stop  offset="0" style="stop-color:#000000"/>
					<stop  offset="5.471659e-02" style="stop-color:#290007"/>
					<stop  offset="0.1474" style="stop-color:#690012"/>
					<stop  offset="0.2359" style="stop-color:#9F001B"/>
					<stop  offset="0.3178" style="stop-color:#C80022"/>
					<stop  offset="0.3916" style="stop-color:#E60027"/>
					<stop  offset="0.4548" style="stop-color:#F9002A"/>
					<stop  offset="0.5" style="stop-color:#FF002B"/>
					<stop  offset="1" style="stop-color:#F7931E"/>
				</linearGradient>
				<polygon class="st1" points="247,0 226.7,74.1 263.6,91.2 				"/>
				
					<radialGradient id="SVGID_00000087410639210330253800000011166255523149046460_" cx="244.2922" cy="-0.6224" r="72.5056" gradientTransform="matrix(1 0 0 -0.626 0 74.9967)" gradientUnits="userSpaceOnUse">
					<stop  offset="0" style="stop-color:#000000"/>
					<stop  offset="5.471659e-02" style="stop-color:#290007"/>
					<stop  offset="0.1474" style="stop-color:#690012"/>
					<stop  offset="0.2359" style="stop-color:#9F001B"/>
					<stop  offset="0.3178" style="stop-color:#C80022"/>
					<stop  offset="0.3916" style="stop-color:#E60027"/>
					<stop  offset="0.4548" style="stop-color:#F9002A"/>
					<stop  offset="0.5" style="stop-color:#FF002B"/>
					<stop  offset="1" style="stop-color:#F7931E"/>
				</radialGradient>
				<polygon style="fill:url(#SVGID_00000087410639210330253800000011166255523149046460_);" points="226.7,74.1 217.4,119.9 
					249.9,94.5 263.6,91.2 				"/>
				
					<radialGradient id="SVGID_00000049936086450818430760000006979239532987141532_" cx="226.1973" cy="113.5671" r="64.4318" gradientTransform="matrix(1 0 0 -1.0423 0 189.7677)" gradientUnits="userSpaceOnUse">
					<stop  offset="0" style="stop-color:#000000"/>
					<stop  offset="0.5" style="stop-color:#FF002B"/>
					<stop  offset="1" style="stop-color:#F7931E"/>
				</radialGradient>
				<polygon style="fill:url(#SVGID_00000049936086450818430760000006979239532987141532_);" points="226.7,74.1 221.3,50.5 247,0 
									"/>
				
					<radialGradient id="SVGID_00000147914623245289369330000012171779240502537858_" cx="236.0498" cy="98.5946" r="81.9039" gradientTransform="matrix(1 0 0 -1.0423 0 189.7677)" gradientUnits="userSpaceOnUse">
					<stop  offset="0" style="stop-color:#000000"/>
					<stop  offset="5.471659e-02" style="stop-color:#290007"/>
					<stop  offset="0.1474" style="stop-color:#690012"/>
					<stop  offset="0.2359" style="stop-color:#9F001B"/>
					<stop  offset="0.3178" style="stop-color:#C80022"/>
					<stop  offset="0.3916" style="stop-color:#E60027"/>
					<stop  offset="0.4548" style="stop-color:#F9002A"/>
					<stop  offset="0.5" style="stop-color:#FF002B"/>
					<stop  offset="1" style="stop-color:#F7931E"/>
				</radialGradient>
				<polygon style="fill:url(#SVGID_00000147914623245289369330000012171779240502537858_);" points="226.7,74.1 221.3,50.5 
					203.6,62.4 217.4,119.9 				"/>
				
					<radialGradient id="SVGID_00000060724885821100032900000007405647965875550085_" cx="252.6217" cy="107.3086" r="91.9017" gradientTransform="matrix(1 0 0 -1.0423 0 189.7677)" gradientUnits="userSpaceOnUse">
					<stop  offset="0" style="stop-color:#F7931E"/>
					<stop  offset="1" style="stop-color:#FF002B"/>
				</radialGradient>
				<polygon style="fill:url(#SVGID_00000060724885821100032900000007405647965875550085_);" points="247,0 263.6,91.2 236.2,78.5 
					254.9,80 				"/>
				
					<radialGradient id="SVGID_00000054257049368600539840000000640345543117761166_" cx="230.8209" cy="153.7497" r="57.9692" gradientTransform="matrix(1 0 0 -1.0423 0 189.7677)" gradientUnits="userSpaceOnUse">
					<stop  offset="0" style="stop-color:#F7931E"/>
					<stop  offset="1" style="stop-color:#FF002B"/>
				</radialGradient>
				<polygon style="fill:url(#SVGID_00000054257049368600539840000000640345543117761166_);" points="226.7,74.1 221.3,50.5 247,0 
					224.8,50.5 				"/>
			</g>
			
				<radialGradient id="SVGID_00000121264073259866995630000014502427971138900407_" cx="224.2963" cy="134.6528" r="55.953" gradientTransform="matrix(1 0 0 -1.0423 0 189.7677)" gradientUnits="userSpaceOnUse">
				<stop  offset="0" style="stop-color:#F7931E"/>
				<stop  offset="1" style="stop-color:#FF002B"/>
			</radialGradient>
			<polygon style="fill:url(#SVGID_00000121264073259866995630000014502427971138900407_);" points="221.3,50.5 217.9,59.3 
				209.6,66.5 217.4,119.9 203.6,62.4 			"/>
		</g>
		
			<radialGradient id="SVGID_00000034074163870290700530000016173083992571337398_" cx="229.7748" cy="77.5825" r="47.821" gradientTransform="matrix(1 0 0 -1.0423 0 189.7677)" gradientUnits="userSpaceOnUse">
			<stop  offset="0" style="stop-color:#F7931E"/>
			<stop  offset="1" style="stop-color:#FF002B"/>
		</radialGradient>
		<polygon style="fill:url(#SVGID_00000034074163870290700530000016173083992571337398_);" points="249,95.1 222.7,110.6 
			220.9,102.9 217.4,119.9 		"/>
	</g>
</g>
</svg>
