<svg xmlns="http://www.w3.org/2000/svg" xmlns:xlink="http://www.w3.org/1999/xlink" width="396.254" height="792.506" viewBox="0 0 396.254 792.506"><defs><linearGradient id="a" x1="-0.309" y1="0.685" x2="1.38" y2="0.397" gradientUnits="objectBoundingBox"><stop offset="0"/><stop offset="0.055" stop-color="#290007"/><stop offset="0.147" stop-color="#690012"/><stop offset="0.236" stop-color="#9f001b"/><stop offset="0.318" stop-color="#c80022"/><stop offset="0.392" stop-color="#e60027"/><stop offset="0.455" stop-color="#f9002a"/><stop offset="0.5" stop-color="#ff002b"/><stop offset="1" stop-color="#f7931e"/></linearGradient><radialGradient id="b" cx="0.582" cy="0.027" r="1.583" gradientTransform="translate(0.005 0.01) scale(0.992 0.626)" xlink:href="#a"/><radialGradient id="c" cx="0.189" cy="0.963" r="0.87" gradientTransform="translate(-0.356 -0.041) scale(2.882 1.042)" gradientUnits="objectBoundingBox"><stop offset="0"/><stop offset="0.5" stop-color="#ff002b"/><stop offset="1" stop-color="#f7931e"/></radialGradient><radialGradient id="d" cx="1.406" cy="0.526" r="1.179" gradientTransform="translate(-2.829 -0.022) scale(3.012 1.042)" xlink:href="#a"/><radialGradient id="e" cx="0.6" cy="0.854" r="1.008" gradientTransform="translate(-1.396 -0.036) scale(3.329 1.042)" gradientUnits="objectBoundingBox"><stop offset="0" stop-color="#f7931e"/><stop offset="1" stop-color="#ff002b"/></radialGradient><radialGradient id="f" cx="0.369" cy="0.398" r="0.782" gradientTransform="translate(-0.695 -0.018) scale(2.882 1.042)" xlink:href="#e"/><radialGradient id="g" cx="1.167" cy="-0.015" r="0.806" gradientTransform="translate(-3.413 0) scale(3.924 1.042)" xlink:href="#e"/><radialGradient id="h" cx="0.391" cy="0.555" r="1.928" gradientTransform="translate(0.084 -0.021) scale(0.784 1.042)" xlink:href="#e"/></defs><g transform="translate(-377 -322)"><g transform="translate(377 322)"><path d="M609.176,322,474.7,811.7,718.536,924.492Z" transform="translate(-322.283 -322)" fill="url(#a)"/><path d="M496.766,635.9,435.3,938.706,649.963,770.22,740.6,748.692Z" transform="translate(-344.349 -146.2)" fill="url(#b)"/><path d="M487.413,811.7,452,655.383,621.889,322Z" transform="translate(-334.997 -322)" fill="url(#c)"/><path d="M529.417,692.018,494,535.7,377,614.639l90.952,380.184Z" transform="translate(-377 -202.318)" fill="url(#d)"/><path d="M586.606,322l109.36,602.492L515,840.717l123.712,9.828Z" transform="translate(-299.713 -322)" fill="url(#e)"/><path d="M487.413,811.7,452,655.383,621.889,322l-146.8,333.383Z" transform="translate(-334.997 -322)" fill="url(#f)"/><path d="M494,535.7l-22.933,58.5-54.913,47.582,51.794,353.039L377,614.639Z" transform="translate(-377 -202.318)" fill="url(#g)"/><path d="M644.347,724.9l-174.1,102.184-12.013-51.014L435.3,888.861Z" transform="translate(-344.349 -96.356)" fill="url(#h)"/></g></g></svg>